<?xml version="1.0" encoding="UTF-8" standalone="no"?>
<!DOCTYPE svg PUBLIC "-//W3C//DTD SVG 1.1//EN" "http://www.w3.org/Graphics/SVG/1.1/DTD/svg11.dtd">
<svg width="100%" height="100%" viewBox="0 0 128 128" version="1.1" xmlns="http://www.w3.org/2000/svg" xmlns:xlink="http://www.w3.org/1999/xlink" xml:space="preserve" xmlns:serif="http://www.serif.com/" style="fill-rule:evenodd;clip-rule:evenodd;stroke-linejoin:round;stroke-miterlimit:2;">
    <g transform="matrix(1,0,0,1,-3.31589,0)">
        <circle cx="67" cy="64" r="61" style="fill:rgb(80,58,247);"/>
    </g>
    <g transform="matrix(0.170848,0,0,0.181459,-90.4793,-111.298)">
        <path d="M1081.14,1107.51C1040.05,1161.7 974.982,1196.73 901.792,1196.73C829.633,1196.73 765.364,1162.68 724.188,1109.78L903.917,946.328L1081.14,1107.51Z" style="fill:white;"/>
    </g>
    <g transform="matrix(3.05487e-05,0.11729,-0.102535,2.62275e-05,140.258,25.3932)">
        <path d="M281.619,769.359L522.995,1051.44L40.242,1051.44L281.619,769.359Z" style="fill:white;"/>
    </g>
    <g transform="matrix(-3.05487e-05,0.11729,0.102535,2.62275e-05,-12.2577,25.3932)">
        <path d="M281.619,769.359L522.995,1051.44L40.242,1051.44L281.619,769.359Z" style="fill:white;"/>
    </g>
</svg>
